<svg width="20" height="16" viewBox="0 0 20 16" fill="none" xmlns="http://www.w3.org/2000/svg">
<path d="M9.99978 12.4999C7.6295 12.4999 5.71078 10.6652 5.53422 8.34027L2.25615 5.80687C1.82522 6.34749 1.42866 6.91904 1.10867 7.54403C1.03718 7.68544 0.999934 7.84167 0.999934 8.00012C0.999934 8.15857 1.03718 8.3148 1.10867 8.4562C2.80333 11.7627 6.15828 13.9999 9.99978 13.9999C10.8407 13.9999 11.6519 13.8749 12.4338 13.673L10.8123 12.4183C10.5445 12.4701 10.2725 12.4974 9.99978 12.4999ZM19.8065 14.3155L16.3519 11.6455C17.4013 10.7611 18.2644 9.6769 18.8909 8.45589C18.9624 8.31448 18.9996 8.15825 18.9996 7.9998C18.9996 7.84135 18.9624 7.68512 18.8909 7.54372C17.1962 4.2372 13.8413 2.00005 9.99978 2.00005C8.3909 2.002 6.80815 2.40704 5.3961 3.17816L1.42054 0.105393C1.36869 0.0650521 1.30941 0.0353222 1.24607 0.0179021C1.18274 0.000481956 1.11659 -0.00428697 1.05141 0.00386783C0.986228 0.0120226 0.923294 0.0329413 0.866201 0.0654285C0.809108 0.0979157 0.758977 0.141335 0.718671 0.193204L0.105243 0.98288C0.0238691 1.08756 -0.0125942 1.22028 0.0038731 1.35184C0.0203404 1.4834 0.0883897 1.60304 0.193054 1.68443L18.579 15.8945C18.6309 15.9349 18.6902 15.9646 18.7535 15.982C18.8168 15.9994 18.883 16.0042 18.9482 15.9961C19.0133 15.9879 19.0763 15.967 19.1334 15.9345C19.1905 15.902 19.2406 15.8586 19.2809 15.8067L19.8946 15.017C19.976 14.9123 20.0124 14.7796 19.9959 14.648C19.9793 14.5164 19.9112 14.3968 19.8065 14.3155ZM14.0653 9.87806L12.8372 8.9287C12.9407 8.62978 12.9955 8.31623 12.9997 7.99996C13.0058 7.53692 12.9033 7.07891 12.7002 6.66271C12.4972 6.24651 12.1994 5.88373 11.8307 5.6035C11.4621 5.32327 11.0328 5.13341 10.5775 5.04917C10.1221 4.96493 9.65337 4.98866 9.20885 5.11844C9.39729 5.37378 9.49923 5.68265 9.49979 5.99999C9.49513 6.10559 9.47899 6.21037 9.45166 6.31249L7.15139 4.5347C7.95043 3.86696 8.95846 3.5008 9.99978 3.50003C10.5908 3.4997 11.1761 3.61587 11.7222 3.8419C12.2683 4.06792 12.7645 4.39937 13.1824 4.8173C13.6004 5.23522 13.9318 5.73142 14.1578 6.27752C14.3839 6.82363 14.5 7.40893 14.4997 7.99996C14.4997 8.67589 14.3344 9.30588 14.0653 9.87837V9.87806Z" fill="#A9B4BE"/>
</svg>
